<?xml version="1.0" encoding="UTF-8"?>
<!--Generator: Apple Native CoreSVG 232.5-->
<!DOCTYPE svg
PUBLIC "-//W3C//DTD SVG 1.1//EN"
       "http://www.w3.org/Graphics/SVG/1.1/DTD/svg11.dtd">
<svg version="1.1" xmlns="http://www.w3.org/2000/svg" xmlns:xlink="http://www.w3.org/1999/xlink" width="3300" height="2200">
 <!--glyph: "", point size: 100.0, font version: "19.0d8e1", template writer version: "128"-->
 <style>.monochrome-0 {-sfsymbols-motion-group:0}

.multicolor-0:tintColor {-sfsymbols-motion-group:0}

.hierarchical-0:primary {-sfsymbols-motion-group:0}

.SFSymbolsPreviewWireframe {fill:none;opacity:1.0;stroke:black;stroke-width:0.5}
</style>
 <g id="Notes">
  <rect height="2200" id="artboard" style="fill:white;opacity:1" width="3300" x="0" y="0"/>
  <line style="fill:none;stroke:black;opacity:1;stroke-width:0.5;" x1="263" x2="3036" y1="292" y2="292"/>
  <text style="stroke:none;fill:black;font-family:sans-serif;font-size:13;font-weight:bold;" transform="matrix(1 0 0 1 263 322)">Weight/Scale Variations</text>
  <text style="stroke:none;fill:black;font-family:sans-serif;font-size:13;text-anchor:middle;" transform="matrix(1 0 0 1 559.711 322)">Ultralight</text>
  <text style="stroke:none;fill:black;font-family:sans-serif;font-size:13;text-anchor:middle;" transform="matrix(1 0 0 1 856.422 322)">Thin</text>
  <text style="stroke:none;fill:black;font-family:sans-serif;font-size:13;text-anchor:middle;" transform="matrix(1 0 0 1 1153.13 322)">Light</text>
  <text style="stroke:none;fill:black;font-family:sans-serif;font-size:13;text-anchor:middle;" transform="matrix(1 0 0 1 1449.84 322)">Regular</text>
  <text style="stroke:none;fill:black;font-family:sans-serif;font-size:13;text-anchor:middle;" transform="matrix(1 0 0 1 1746.56 322)">Medium</text>
  <text style="stroke:none;fill:black;font-family:sans-serif;font-size:13;text-anchor:middle;" transform="matrix(1 0 0 1 2043.27 322)">Semibold</text>
  <text style="stroke:none;fill:black;font-family:sans-serif;font-size:13;text-anchor:middle;" transform="matrix(1 0 0 1 2339.98 322)">Bold</text>
  <text style="stroke:none;fill:black;font-family:sans-serif;font-size:13;text-anchor:middle;" transform="matrix(1 0 0 1 2636.69 322)">Heavy</text>
  <text style="stroke:none;fill:black;font-family:sans-serif;font-size:13;text-anchor:middle;" transform="matrix(1 0 0 1 2933.4 322)">Black</text>
  <line style="fill:none;stroke:black;opacity:1;stroke-width:0.5;" x1="263" x2="3036" y1="1903" y2="1903"/>
  <g transform="matrix(0.2 0 0 0.2 263 1933)">
   <path d="m46.2402 4.15039c21.5332 0 39.4531-17.8711 39.4531-39.4043s-17.9688-39.4043-39.502-39.4043c-21.4844 0-39.3555 17.8711-39.3555 39.4043s17.9199 39.4043 39.4043 39.4043Zm0-7.42188c-17.7246 0-31.8848-14.209-31.8848-31.9824s14.1113-31.9824 31.8359-31.9824c17.7734 0 32.0312 14.209 32.0312 31.9824s-14.209 31.9824-31.9824 31.9824Zm-17.9688-31.9824c0 2.14844 1.51367 3.61328 3.75977 3.61328h10.498v10.5957c0 2.19727 1.46484 3.71094 3.61328 3.71094 2.24609 0 3.71094-1.51367 3.71094-3.71094v-10.5957h10.5957c2.19727 0 3.71094-1.46484 3.71094-3.61328 0-2.19727-1.51367-3.71094-3.71094-3.71094h-10.5957v-10.5469c0-2.24609-1.46484-3.75977-3.71094-3.75977-2.14844 0-3.61328 1.51367-3.61328 3.75977v10.5469h-10.498c-2.24609 0-3.75977 1.51367-3.75977 3.71094Z"/>
  </g>
  <g transform="matrix(0.2 0 0 0.2 281.506 1933)">
   <path d="m58.5449 14.5508c27.2461 0 49.8047-22.6074 49.8047-49.8047 0-27.2461-22.6074-49.8047-49.8535-49.8047-27.1973 0-49.7559 22.5586-49.7559 49.8047 0 27.1973 22.6074 49.8047 49.8047 49.8047Zm0-8.30078c-23.0469 0-41.4551-18.457-41.4551-41.5039s18.3594-41.5039 41.4062-41.5039 41.5527 18.457 41.5527 41.5039-18.457 41.5039-41.5039 41.5039Zm-22.6562-41.5039c0 2.39258 1.66016 4.00391 4.15039 4.00391h14.3555v14.4043c0 2.44141 1.66016 4.15039 4.05273 4.15039 2.44141 0 4.15039-1.66016 4.15039-4.15039v-14.4043h14.4043c2.44141 0 4.15039-1.61133 4.15039-4.00391 0-2.44141-1.70898-4.15039-4.15039-4.15039h-14.4043v-14.3555c0-2.49023-1.70898-4.19922-4.15039-4.19922-2.39258 0-4.05273 1.70898-4.05273 4.19922v14.3555h-14.3555c-2.49023 0-4.15039 1.70898-4.15039 4.15039Z"/>
  </g>
  <g transform="matrix(0.2 0 0 0.2 304.924 1933)">
   <path d="m74.8535 28.3203c34.8145 0 63.623-28.8086 63.623-63.5742 0-34.8145-28.8574-63.623-63.6719-63.623-34.7656 0-63.5254 28.8086-63.5254 63.623 0 34.7656 28.8086 63.5742 63.5742 63.5742Zm0-9.08203c-30.1758 0-54.4434-24.3164-54.4434-54.4922 0-30.2246 24.2188-54.4922 54.3945-54.4922 30.2246 0 54.541 24.2676 54.541 54.4922 0 30.1758-24.2676 54.4922-54.4922 54.4922Zm-28.8574-54.4922c0 2.58789 1.85547 4.39453 4.58984 4.39453h19.7266v19.7754c0 2.68555 1.85547 4.58984 4.44336 4.58984 2.68555 0 4.54102-1.85547 4.54102-4.58984v-19.7754h19.7754c2.68555 0 4.58984-1.80664 4.58984-4.39453 0-2.73438-1.85547-4.58984-4.58984-4.58984h-19.7754v-19.7266c0-2.73438-1.85547-4.63867-4.54102-4.63867-2.58789 0-4.44336 1.9043-4.44336 4.63867v19.7266h-19.7266c-2.73438 0-4.58984 1.85547-4.58984 4.58984Z"/>
  </g>
  <text style="stroke:none;fill:black;font-family:sans-serif;font-size:13;font-weight:bold;" transform="matrix(1 0 0 1 263 1953)">Design Variations</text>
  <text style="stroke:none;fill:black;font-family:sans-serif;font-size:13;" transform="matrix(1 0 0 1 263 1971)">Symbols are supported in up to nine weights and three scales.</text>
  <text style="stroke:none;fill:black;font-family:sans-serif;font-size:13;" transform="matrix(1 0 0 1 263 1989)">For optimal layout with text and other symbols, vertically align</text>
  <text style="stroke:none;fill:black;font-family:sans-serif;font-size:13;" transform="matrix(1 0 0 1 263 2007)">symbols with the adjacent text.</text>
  <line style="fill:none;stroke:#00AEEF;stroke-width:0.5;opacity:1.0;" x1="776" x2="776" y1="1919" y2="1933"/>
  <g transform="matrix(0.2 0 0 0.2 776 1933)">
   <path d="m16.5527 0.78125c2.58789 0 3.85742-0.976562 4.78516-3.71094l6.29883-17.2363h28.8086l6.29883 17.2363c0.927734 2.73438 2.19727 3.71094 4.73633 3.71094 2.58789 0 4.24805-1.5625 4.24805-4.00391 0-0.830078-0.146484-1.61133-0.537109-2.63672l-22.9004-60.9863c-1.12305-2.97852-3.125-4.49219-6.25-4.49219-3.02734 0-5.07812 1.46484-6.15234 4.44336l-22.9004 61.084c-0.390625 1.02539-0.537109 1.80664-0.537109 2.63672 0 2.44141 1.5625 3.95508 4.10156 3.95508Zm13.4766-28.3691 11.8652-32.8613h0.244141l11.8652 32.8613Z"/>
  </g>
  <line style="fill:none;stroke:#00AEEF;stroke-width:0.5;opacity:1.0;" x1="792.836" x2="792.836" y1="1919" y2="1933"/>
  <text style="stroke:none;fill:black;font-family:sans-serif;font-size:13;font-weight:bold;" transform="matrix(1 0 0 1 776 1953)">Margins</text>
  <text style="stroke:none;fill:black;font-family:sans-serif;font-size:13;" transform="matrix(1 0 0 1 776 1971)">Leading and trailing margins on the left and right side of each symbol</text>
  <text style="stroke:none;fill:black;font-family:sans-serif;font-size:13;" transform="matrix(1 0 0 1 776 1989)">can be adjusted by modifying the x-location of the margin guidelines.</text>
  <text style="stroke:none;fill:black;font-family:sans-serif;font-size:13;" transform="matrix(1 0 0 1 776 2007)">Modifications are automatically applied proportionally to all</text>
  <text style="stroke:none;fill:black;font-family:sans-serif;font-size:13;" transform="matrix(1 0 0 1 776 2025)">scales and weights.</text>
  <g transform="matrix(0.2 0 0 0.2 1289 1933)">
   <path d="m14.209 9.32617 8.49609 8.54492c4.29688 4.3457 9.22852 4.05273 13.8672-1.07422l53.4668-58.9355-4.83398-4.88281-53.0762 58.3984c-1.75781 2.00195-3.41797 2.49023-5.76172 0.146484l-5.85938-5.81055c-2.34375-2.29492-1.80664-4.00391 0.195312-5.81055l57.373-54.0039-4.88281-4.83398-57.959 54.4434c-4.93164 4.58984-5.32227 9.47266-1.02539 13.8184Zm32.0801-90.9668c-2.09961 2.05078-2.24609 4.93164-1.07422 6.88477 1.17188 1.80664 3.4668 2.97852 6.68945 2.14844 7.32422-1.70898 14.9414-2.00195 22.0703 2.68555l-2.92969 7.27539c-1.70898 4.15039-0.830078 7.08008 1.85547 9.81445l11.4746 11.5723c2.44141 2.44141 4.49219 2.53906 7.32422 2.05078l5.32227-0.976562 3.32031 3.36914-0.195312 2.7832c-0.195312 2.49023 0.439453 4.39453 2.88086 6.78711l3.80859 3.71094c2.39258 2.39258 5.46875 2.53906 7.8125 0.195312l14.5508-14.5996c2.34375-2.34375 2.24609-5.32227-0.146484-7.71484l-3.85742-3.80859c-2.39258-2.39258-4.24805-3.17383-6.64062-2.97852l-2.88086 0.244141-3.22266-3.17383 1.2207-5.61523c0.634766-2.83203-0.146484-5.0293-3.07617-7.95898l-10.9863-10.9375c-16.6992-16.6016-38.8672-16.2109-53.3203-1.75781Zm7.4707 1.85547c12.1582-8.88672 28.6133-7.37305 39.7461 3.75977l12.1582 12.0605c1.17188 1.17188 1.36719 2.09961 1.02539 3.80859l-1.61133 7.42188 7.51953 7.42188 4.93164-0.292969c1.26953-0.0488281 1.66016 0.0488281 2.63672 1.02539l2.88086 2.88086-12.207 12.207-2.88086-2.88086c-0.976562-0.976562-1.12305-1.36719-1.07422-2.68555l0.341797-4.88281-7.4707-7.42188-7.61719 1.26953c-1.61133 0.341797-2.34375 0.195312-3.56445-0.976562l-10.0098-10.0098c-1.26953-1.17188-1.41602-2.00195-0.634766-3.85742l4.39453-10.4492c-7.8125-7.27539-17.9688-10.4004-28.125-7.42188-0.78125 0.195312-1.07422-0.439453-0.439453-0.976562Z"/>
  </g>
  <text style="stroke:none;fill:black;font-family:sans-serif;font-size:13;font-weight:bold;" transform="matrix(1 0 0 1 1289 1953)">Exporting</text>
  <text style="stroke:none;fill:black;font-family:sans-serif;font-size:13;" transform="matrix(1 0 0 1 1289 1971)">Symbols should be outlined when exporting to ensure the</text>
  <text style="stroke:none;fill:black;font-family:sans-serif;font-size:13;" transform="matrix(1 0 0 1 1289 1989)">design is preserved when submitting to Xcode.</text>
  <text id="template-version" style="stroke:none;fill:black;font-family:sans-serif;font-size:13;text-anchor:end;" transform="matrix(1 0 0 1 3036 1933)">Template v.5.0</text>
  <text style="stroke:none;fill:black;font-family:sans-serif;font-size:13;text-anchor:end;" transform="matrix(1 0 0 1 3036 1951)">Requires Xcode 15 or greater</text>
  <text id="descriptive-name" style="stroke:none;fill:black;font-family:sans-serif;font-size:13;text-anchor:end;" transform="matrix(1 0 0 1 3036 1969)">Generated from book.and.external.fill</text>
  <text style="stroke:none;fill:black;font-family:sans-serif;font-size:13;text-anchor:end;" transform="matrix(1 0 0 1 3036 1987)">Typeset at 100.0 points</text>
  <text style="stroke:none;fill:black;font-family:sans-serif;font-size:13;" transform="matrix(1 0 0 1 263 726)">Small</text>
  <text style="stroke:none;fill:black;font-family:sans-serif;font-size:13;" transform="matrix(1 0 0 1 263 1156)">Medium</text>
  <text style="stroke:none;fill:black;font-family:sans-serif;font-size:13;" transform="matrix(1 0 0 1 263 1586)">Large</text>
 </g>
 <g id="Guides">
  <g id="H-reference" style="fill:#27AAE1;stroke:none;" transform="matrix(1 0 0 1 339 696)">
   <path d="M0.993654 0L3.63775 0L29.3281-67.1323L30.0303-67.1323L30.0303-70.459L28.1226-70.459ZM11.6885-24.4799L46.9815-24.4799L46.2315-26.7285L12.4385-26.7285ZM55.1196 0L57.7637 0L30.6382-70.459L29.4326-70.459L29.4326-67.1323Z"/>
  </g>
  <line id="Baseline-S" style="fill:none;stroke:#27AAE1;opacity:1;stroke-width:0.5;" x1="263" x2="3036" y1="696" y2="696"/>
  <line id="Capline-S" style="fill:none;stroke:#27AAE1;opacity:1;stroke-width:0.5;" x1="263" x2="3036" y1="625.541" y2="625.541"/>
  <g id="H-reference" style="fill:#27AAE1;stroke:none;" transform="matrix(1 0 0 1 339 1126)">
   <path d="M0.993654 0L3.63775 0L29.3281-67.1323L30.0303-67.1323L30.0303-70.459L28.1226-70.459ZM11.6885-24.4799L46.9815-24.4799L46.2315-26.7285L12.4385-26.7285ZM55.1196 0L57.7637 0L30.6382-70.459L29.4326-70.459L29.4326-67.1323Z"/>
  </g>
  <line id="Baseline-M" style="fill:none;stroke:#27AAE1;opacity:1;stroke-width:0.5;" x1="263" x2="3036" y1="1126" y2="1126"/>
  <line id="Capline-M" style="fill:none;stroke:#27AAE1;opacity:1;stroke-width:0.5;" x1="263" x2="3036" y1="1055.54" y2="1055.54"/>
  <g id="H-reference" style="fill:#27AAE1;stroke:none;" transform="matrix(1 0 0 1 339 1556)">
   <path d="M0.993654 0L3.63775 0L29.3281-67.1323L30.0303-67.1323L30.0303-70.459L28.1226-70.459ZM11.6885-24.4799L46.9815-24.4799L46.2315-26.7285L12.4385-26.7285ZM55.1196 0L57.7637 0L30.6382-70.459L29.4326-70.459L29.4326-67.1323Z"/>
  </g>
  <line id="Baseline-L" style="fill:none;stroke:#27AAE1;opacity:1;stroke-width:0.5;" x1="263" x2="3036" y1="1556" y2="1556"/>
  <line id="Capline-L" style="fill:none;stroke:#27AAE1;opacity:1;stroke-width:0.5;" x1="263" x2="3036" y1="1485.54" y2="1485.54"/>
  <line id="left-margin-Ultralight-S" style="fill:none;stroke:#00AEEF;stroke-width:0.5;opacity:1.0;" x1="509.344" x2="509.344" y1="600.785" y2="720.121"/>
  <line id="right-margin-Ultralight-S" style="fill:none;stroke:#FF3B30;stroke-width:0.5;opacity:1.0;" x1="610.078" x2="610.078" y1="600.785" y2="720.121"/>
  <line id="left-margin-Regular-S" style="fill:none;stroke:#00AEEF;stroke-width:0.5;opacity:1.0;" x1="1395.25" x2="1395.25" y1="600.785" y2="720.121"/>
  <line id="right-margin-Regular-S" style="fill:none;stroke:#00AEEF;stroke-width:0.5;opacity:1.0;" x1="1504.43" x2="1504.43" y1="600.785" y2="720.121"/>
  <line id="left-margin-Black-S" style="fill:none;stroke:#00AEEF;stroke-width:0.5;opacity:1.0;" x1="2873.98" x2="2873.98" y1="600.785" y2="720.121"/>
  <line id="right-margin-Black-S" style="fill:none;stroke:#00AEEF;stroke-width:0.5;opacity:1.0;" x1="2992.82" x2="2992.82" y1="600.785" y2="720.121"/>
 </g>
 <g id="Symbols">
  <g id="Black-S" transform="matrix(1 0 0 1 2873.98 696)">
   <path class="monochrome-0 multicolor-0:tintColor hierarchical-0:primary SFSymbolsPreviewWireframe" d="M70.857-0.661C69.729-0.048 68.633 0.67 67.578 1.497C66.846 2.083 66.016 2.327 65.283 2.327C64.063 2.327 63.086 1.497 63.086 0.228L63.086-60.173C63.086-61.442 63.33-62.272 64.16-63.591C67.822-69.352 76.123-73.161 85.449-73.161C94.727-73.161 104.199-68.669 107.568-62.858C108.691-60.954 109.082-59.782 109.082-56.852L109.082-37.501C108.026-37.597 106.839-37.64 105.493-37.64L83.752-37.64C78.592-37.64 75.692-36.848 73.603-34.829C71.484-32.808 70.735-30.067 70.735-25.041L70.735-4.001C70.735-2.753 70.773-1.648 70.857-0.661ZM33.398-73.161C42.725-73.161 51.025-69.352 54.688-63.591C55.518-62.272 55.762-61.442 55.762-60.173L55.762 0.228C55.762 1.497 54.785 2.327 53.564 2.327C52.832 2.327 52.002 2.083 51.269 1.497C46.973-1.872 41.992-3.434 36.914-3.434C32.373-3.434 27.832-2.262 23.779-0.065C20.606 1.644 19.336 2.474 16.602 2.474C12.305 2.474 9.766 0.13 9.766-4.509L9.766-56.852C9.766-59.782 10.156-60.954 11.279-62.858C14.648-68.669 24.121-73.161 33.398-73.161ZM115.399-30.8045C113.543-32.6657 111.102-33.3264 106.347-33.3264L87.6267-33.3264C83.1832-33.3264 80.6862-32.6077 78.8877-30.7759C77.063-28.9415 76.4176-26.4547 76.4176-21.8933L76.4176-2.80031C76.4176 2.11024 77.0342 4.59514 78.859 6.4002C80.6862 8.26133 83.1245 8.92206 87.9103 8.92206L106.347 8.92206C111.102 8.92206 113.571 8.26133 115.399 6.4002C117.195 4.56583 117.84 2.11024 117.84-2.80031L117.84-21.604C117.84-26.5146 117.195-28.9995 115.399-30.8045ZM93.6901-15.5983L92.5683-15.5985C89.8565-15.5991 87.6548-17.7299 87.6549-20.3537C87.655-22.9788 89.8569-25.1098 92.5686-25.1092L105.552-25.1093C106.875-25.1098 108.114-24.5995 109.026-23.7167C109.939-22.8332 110.465-21.6352 110.466-20.3541L110.466-7.78829C110.466-5.16382 108.264-3.03286 105.552-3.03275C102.84-3.0333 100.638-5.16417 100.638-7.78864L100.638-8.87368L92.1806-0.688154C90.2629 1.16787 87.1495 1.16808 85.2316-0.688118C83.3144-2.54361 83.3139-5.55748 85.2316-7.4135L93.6901-15.5983Z"/>
  </g>
  <g id="Regular-S" transform="matrix(1 0 0 1 1395.25 696)">
   <path class="monochrome-0 multicolor-0:tintColor hierarchical-0:primary SFSymbolsPreviewWireframe" d="M63.372-2.796C62.345-2.178 61.366-1.474 60.449-0.684C60.01-0.293 59.473-0.098 59.033-0.098C58.154-0.098 57.422-0.781 57.422-1.807L57.422-59.18C57.422-60.254 57.471-60.4 58.301-61.572C61.865-67.041 69.385-70.459 77.734-70.459C86.279-70.459 95.019-66.406 98.975-59.521C99.414-58.74 99.414-58.203 99.414-56.641L99.414-38.127C98.515-38.197 97.52-38.229 96.41-38.229L75.712-38.229C70.799-38.229 68.038-37.45 66.049-35.464C64.032-33.475 63.318-30.779 63.318-25.835L63.318-5.136C63.318-4.293 63.335-3.515 63.372-2.796ZM31.445-70.459C39.795-70.459 47.314-67.041 50.879-61.572C51.709-60.4 51.758-60.254 51.758-59.18L51.758-1.807C51.758-0.781 51.025-0.098 50.147-0.098C49.707-0.098 49.17-0.293 48.73-0.684C44.482-4.346 38.916-6.152 33.252-6.152C27.051-6.152 20.801-4.004 15.967 0.049C15.137 0.781 14.16 1.074 13.184 1.074C11.035 1.074 9.766-0.146 9.766-2.1L9.766-56.641C9.766-58.203 9.766-58.74 10.205-59.521C14.16-66.406 22.9-70.459 31.445-70.459ZM106.696-31.0261C104.858-32.8342 102.439-33.4761 97.7275-33.4761L79.1779-33.4761C74.775-33.4761 72.3009-32.7779 70.5188-30.9983C68.7107-29.2162 68.0712-26.8002 68.0712-22.3688L68.0712-3.81989C68.0712 0.950738 68.6822 3.36483 70.4903 5.11846C72.3009 6.92655 74.7168 7.56846 79.459 7.56846L97.7275 7.56846C102.439 7.56846 104.886 6.92655 106.696 5.11846C108.476 3.33636 109.115 0.950738 109.115-3.81989L109.115-22.0878C109.115-26.8584 108.476-29.2725 106.696-31.0261ZM88.9153-18.2615L83.8104-18.2613C81.8639-18.2618 80.2843-19.8413 80.2838-21.7879C80.2841-23.7337 81.8643-25.3138 83.8101-25.3141L97.4264-25.3135C98.3766-25.3139 99.2654-24.9354 99.9198-24.281C100.575-23.6259 100.953-22.7378 100.952-21.7876L100.953-8.1713C100.953-6.22473 99.3732-4.64458 97.4267-4.64505C95.4809-4.64476 93.9013-6.22433 93.9008-8.1709L93.901-13.2757L82.2525-1.62719C80.8763-0.251043 78.6419-0.250558 77.2656-1.62683C75.8901-3.00234 75.8898-5.23755 77.266-6.61369L88.9153-18.2615Z"/>
  </g>
  <g id="Ultralight-S" transform="matrix(1 0 0 1 509.344 696)">
   <path class="monochrome-0 multicolor-0:tintColor hierarchical-0:primary SFSymbolsPreviewWireframe" d="M59.029-8.034C56.79-6.948 54.997-5.647 53.683-4.471C53.334-4.217 52.934-4.067 52.54-4.067C51.933-4.067 51.428-4.478 51.428-5.186L51.428-58.2C51.428-59.001 51.567-59.375 52.034-59.911C56.552-65.016 63.118-67.345 69.697-67.345C77.788-67.345 86.573-64.109 90.483-57.951C90.877-57.351 90.968-57.041 90.968-56.251L90.968-40.664C90.498-40.68 90.003-40.687 89.481-40.687L70.403-40.687C65.875-40.687 63.33-39.969 61.497-38.139C59.637-36.306 58.98-33.821 58.98-29.264L58.98-10.186C58.98-9.41 58.995-8.695 59.029-8.034ZM31.037-67.345C37.615-67.345 44.136-65.016 48.699-59.911C49.166-59.375 49.306-59.001 49.306-58.2L49.306-5.186C49.306-4.478 48.8-4.067 48.194-4.067C47.8-4.067 47.399-4.217 47.05-4.471C44.074-7.134 38.644-10.44 31.118-10.44C23.963-10.44 16.85-8.473 12.334-3.966C11.958-3.597 11.663-3.349 11.004-3.349C10.263-3.349 9.766-3.889 9.766-4.661L9.766-56.251C9.766-57.041 9.856-57.351 10.251-57.951C14.16-64.109 22.946-67.345 31.037-67.345ZM98.8182-36.3691C97.013-38.1444 94.6384-38.7747 90.0119-38.7747L71.7983-38.7747C67.475-38.7747 65.0457-38.0891 63.2959-36.3417C61.5205-34.5919 60.8927-32.2197 60.8927-27.8685L60.8927-9.65548C60.8927-4.97124 61.4926-2.60086 63.2679-0.878992C65.0457 0.896363 67.4179 1.52664 72.0742 1.52664L90.0119 1.52664C94.6384 1.52664 97.0404 0.896363 98.8182-0.878992C100.566-2.62882 101.193-4.97124 101.193-9.65548L101.193-27.5926C101.193-32.2768 100.566-34.6472 98.8182-36.3691ZM86.1683-25.5171L76.6349-25.5169C75.9455-25.5162 75.3848-26.077 75.3855-26.7664C75.3855-27.4565 75.945-28.0161 76.6352-28.0161L89.1863-28.0161C89.5226-28.0158 89.8373-27.8821 90.0692-27.6502C90.3018-27.4176 90.4355-27.103 90.4358-26.7667L90.4358-14.2155C90.4358-13.5254 89.8762-12.9658 89.1861-12.9658C88.496-12.9658 87.9359-13.5258 87.9359-14.216L87.9361-23.7494L73.785-9.59824C73.2971-9.11038 72.505-9.11026 72.0171-9.59816C71.5292-10.0861 71.5294-10.8781 72.0172-11.366L86.1683-25.5171Z"/>
  </g>
 </g>
</svg>
